<svg xmlns="http://www.w3.org/2000/svg" viewBox="0 0 600 750">
  <defs>
    <linearGradient id="bg" x1="0" y1="0" x2="0" y2="1"><stop offset="0" stop-color="#ece8ff"/><stop offset="1" stop-color="#bfb4f5"/></linearGradient>
    <radialGradient id="glow" cx="50%" cy="50%" r="50%"><stop offset="0" stop-color="#fff" stop-opacity="0.85"/><stop offset="1" stop-color="#fff" stop-opacity="0"/></radialGradient>
    <linearGradient id="glass" x1="0" y1="0" x2="1" y2="0"><stop offset="0" stop-color="#fff" stop-opacity="0.55"/><stop offset="0.5" stop-color="#fff" stop-opacity="0.12"/><stop offset="1" stop-color="#fff" stop-opacity="0.4"/></linearGradient>
    <linearGradient id="liquid" x1="0" y1="0" x2="1" y2="1"><stop offset="0" stop-color="#7b6cf6"/><stop offset="1" stop-color="#4b3fb3"/></linearGradient>
    <linearGradient id="cap" x1="0" y1="0" x2="1" y2="0"><stop offset="0" stop-color="#e0d8ff"/><stop offset="0.35" stop-color="#ffffff" stop-opacity="0.9"/><stop offset="0.55" stop-color="#e0d8ff"/><stop offset="1" stop-color="#2a2a2a"/></linearGradient>
    <linearGradient id="collar" x1="0" y1="0" x2="1" y2="0"><stop offset="0" stop-color="#8f7a4a"/><stop offset="0.4" stop-color="#f4e3b0"/><stop offset="1" stop-color="#6e5a30"/></linearGradient>
    <linearGradient id="shine" x1="0" y1="0" x2="1" y2="0"><stop offset="0" stop-color="#fff" stop-opacity="0.85"/><stop offset="1" stop-color="#fff" stop-opacity="0"/></linearGradient>
    <linearGradient id="fade" x1="0" y1="0" x2="0" y2="1"><stop offset="0" stop-color="#fff" stop-opacity="0.35"/><stop offset="1" stop-color="#fff" stop-opacity="0"/></linearGradient>
    <filter id="soft"><feGaussianBlur stdDeviation="3"/></filter>
    <filter id="blur18"><feGaussianBlur stdDeviation="18"/></filter>
  </defs>
  <rect width="600" height="750" fill="url(#bg)"/>
  <path d="M 150 640 L 150 300 A 150 150 0 0 1 450 300 L 450 640 Z" fill="#fff" opacity="0.35"/>
  <circle cx="300" cy="360" r="230" fill="url(#glow)"/>
  <g opacity="0.9"><g transform="translate(110 530)"><ellipse cx="0" cy="24.200000000000003" rx="16.72" ry="30.799999999999997" transform="rotate(60)" fill="#5a46c9"/><ellipse cx="0" cy="24.200000000000003" rx="16.72" ry="30.799999999999997" transform="rotate(180)" fill="#5a46c9"/><ellipse cx="0" cy="24.200000000000003" rx="16.72" ry="30.799999999999997" transform="rotate(300)" fill="#5a46c9"/><ellipse cx="0" cy="-22" rx="13.2" ry="26.4" transform="rotate(0)" fill="#8c7cf0"/><ellipse cx="0" cy="-22" rx="13.2" ry="26.4" transform="rotate(120)" fill="#8c7cf0"/><ellipse cx="0" cy="-22" rx="13.2" ry="26.4" transform="rotate(240)" fill="#8c7cf0"/><circle r="6.6" fill="#f6c945"/></g><g transform="translate(490 535)"><ellipse cx="0" cy="22" rx="15.2" ry="28" transform="rotate(60)" fill="#6b57d8"/><ellipse cx="0" cy="22" rx="15.2" ry="28" transform="rotate(180)" fill="#6b57d8"/><ellipse cx="0" cy="22" rx="15.2" ry="28" transform="rotate(300)" fill="#6b57d8"/><ellipse cx="0" cy="-20" rx="12" ry="24" transform="rotate(0)" fill="#a497f5"/><ellipse cx="0" cy="-20" rx="12" ry="24" transform="rotate(120)" fill="#a497f5"/><ellipse cx="0" cy="-20" rx="12" ry="24" transform="rotate(240)" fill="#a497f5"/><circle r="6" fill="#f6c945"/></g><circle cx="160" cy="590" r="9" fill="#2a1446"/><circle cx="156.85" cy="586.85" r="2.25" fill="#fff" opacity="0.4"/><circle cx="440" cy="595" r="8" fill="#2a1446"/><circle cx="437.2" cy="592.2" r="2" fill="#fff" opacity="0.4"/><g transform="translate(60 470) rotate(-10)"><path d="M0 0 C 17 -15.3, 40.8 -11.899999999999999, 54.400000000000006 0 C 40.8 11.899999999999999, 17 15.3, 0 0 Z" fill="#4d6b4a"/><path d="M0 0 L 51 0" stroke="#fff" stroke-opacity="0.35" stroke-width="1.5"/></g></g>
  
  <rect x="150" y="545" width="300" height="70" fill="#bfb4f5" opacity="0.9"/>
  <rect x="150" y="545" width="300" height="70" fill="url(#fade)"/>
  <ellipse cx="300" cy="615" rx="150" ry="18" fill="#bfb4f5"/>
  <ellipse cx="300" cy="545" rx="150" ry="18" fill="#fff" opacity="0.92"/>
  <ellipse cx="300" cy="545" rx="150" ry="18" fill="#bfb4f5" opacity="0.25"/>
  
  <ellipse cx="300" cy="551" rx="102" ry="12" fill="#000" opacity="0.22" filter="url(#soft)"/>
  <rect x="271.1" y="232" width="57.800000000000004" height="74" rx="10" fill="url(#cap)"/>
  <rect x="271.1" y="232" width="57.800000000000004" height="10" rx="5" fill="#fff" opacity="0.35"/>
  <rect x="266" y="304" width="68" height="22" rx="4" fill="url(#collar)"/>
  <rect x="215" y="324" width="170" height="221" rx="27.2" fill="url(#liquid)" opacity="0.18"/>
  <clipPath id="body"><rect x="215" y="324" width="170" height="221" rx="27.2"/></clipPath>
  <g clip-path="url(#body)">
    <rect x="215" y="372.62" width="170" height="221" fill="url(#liquid)"/>
    <ellipse cx="300" cy="372.62" rx="85" ry="7" fill="#fff" opacity="0.35"/>
    <rect x="215" y="324" width="170" height="221" fill="url(#glass)"/>
    <rect x="228.6" y="336" width="23.8" height="197" rx="11.9" fill="url(#shine)"/>
    <rect x="354.4" y="348" width="8.5" height="121.55000000000001" rx="4" fill="#fff" opacity="0.45"/>
  </g>
  <rect x="215" y="324" width="170" height="221" rx="27.2" fill="none" stroke="#fff" stroke-opacity="0.7" stroke-width="2.5"/>
  <rect x="243.9" y="416.82" width="112.2" height="75.14" rx="4" fill="#fffdf8" opacity="0.96"/>
  <rect x="248.9" y="421.82" width="102.2" height="65.14" rx="2" fill="none" stroke="#b8975a" stroke-width="1.2"/>
  <text x="300" y="456.6" font-family="Georgia, serif" font-size="34" text-anchor="middle" fill="#111">7</text>
  <text x="300" y="472.07000000000005" font-family="Arial, sans-serif" font-size="9.35" letter-spacing="4.25" text-anchor="middle" fill="#111">SEVEN</text>
  <text x="300" y="483.12" font-family="Arial, sans-serif" font-size="5.95" letter-spacing="2" text-anchor="middle" fill="#8a7a5a">EAU DE PARFUM</text>
</svg>
