<svg xmlns="http://www.w3.org/2000/svg" viewBox="0 0 600 750"><defs>
    <linearGradient id="bg" x1="0" y1="0" x2="0" y2="1"><stop offset="0" stop-color="#fde7ec"/><stop offset="1" stop-color="#f7cbd5"/></linearGradient>
    <radialGradient id="glow" cx="50%" cy="50%" r="50%"><stop offset="0" stop-color="#fff" stop-opacity="0.85"/><stop offset="1" stop-color="#fff" stop-opacity="0"/></radialGradient>
    <linearGradient id="box" x1="0" y1="0" x2="1" y2="1"><stop offset="0" stop-color="#2b2b2b"/><stop offset="1" stop-color="#0d0d0d"/></linearGradient>
    <linearGradient id="glass" x1="0" y1="0" x2="1" y2="0"><stop offset="0" stop-color="#fff" stop-opacity="0.55"/><stop offset="0.5" stop-color="#fff" stop-opacity="0.12"/><stop offset="1" stop-color="#fff" stop-opacity="0.4"/></linearGradient>
    <linearGradient id="liquid" x1="0" y1="0" x2="1" y2="1"><stop offset="0" stop-color="#f4c7d0"/><stop offset="1" stop-color="#e79aaa"/></linearGradient>
    <linearGradient id="cap" x1="0" y1="0" x2="1" y2="0"><stop offset="0" stop-color="#b76e79"/><stop offset="0.35" stop-color="#ffffff" stop-opacity="0.9"/><stop offset="0.55" stop-color="#b76e79"/><stop offset="1" stop-color="#2a2a2a"/></linearGradient>
    <linearGradient id="collar" x1="0" y1="0" x2="1" y2="0"><stop offset="0" stop-color="#8f7a4a"/><stop offset="0.4" stop-color="#f4e3b0"/><stop offset="1" stop-color="#6e5a30"/></linearGradient>
    <linearGradient id="shine" x1="0" y1="0" x2="1" y2="0"><stop offset="0" stop-color="#fff" stop-opacity="0.85"/><stop offset="1" stop-color="#fff" stop-opacity="0"/></linearGradient>
    <linearGradient id="fade" x1="0" y1="0" x2="0" y2="1"><stop offset="0" stop-color="#fff" stop-opacity="0.35"/><stop offset="1" stop-color="#fff" stop-opacity="0"/></linearGradient>
    <filter id="soft"><feGaussianBlur stdDeviation="3"/></filter>
    <filter id="blur18"><feGaussianBlur stdDeviation="18"/></filter>
  </defs>
  <rect width="600" height="750" fill="url(#bg)"/>
  <circle cx="300" cy="300" r="260" fill="url(#glow)"/>
  <ellipse cx="420" cy="200" rx="170" ry="90" fill="#fff" opacity="0.35" filter="url(#blur18)"/>
  <circle cx="342.5" cy="245.2" r="6.1" fill="#e79aaa" opacity="0.89"/><circle cx="526.1" cy="140.9" r="2.0" fill="#e79aaa" opacity="0.45"/><circle cx="454.6" cy="213.6" r="2.6" fill="#e79aaa" opacity="0.63"/><circle cx="446.7" cy="222.1" r="1.9" fill="#e79aaa" opacity="0.64"/><circle cx="398.3" cy="213.2" r="2.8" fill="#e79aaa" opacity="0.76"/><circle cx="390.4" cy="203.5" r="3.9" fill="#e79aaa" opacity="0.78"/><circle cx="492.5" cy="189.1" r="2.6" fill="#e79aaa" opacity="0.54"/><circle cx="470.0" cy="180.6" r="3.6" fill="#e79aaa" opacity="0.59"/><circle cx="361.8" cy="235.7" r="1.9" fill="#e79aaa" opacity="0.85"/><circle cx="460.3" cy="169.3" r="2.6" fill="#e79aaa" opacity="0.61"/><circle cx="351.5" cy="257.5" r="5.5" fill="#e79aaa" opacity="0.87"/><circle cx="357.0" cy="230.3" r="1.5" fill="#e79aaa" opacity="0.86"/><circle cx="419.9" cy="171.8" r="4.3" fill="#e79aaa" opacity="0.71"/><circle cx="542.2" cy="176.7" r="1.7" fill="#e79aaa" opacity="0.42"/><circle cx="516.5" cy="210.7" r="2.1" fill="#e79aaa" opacity="0.48"/><circle cx="490.0" cy="233.4" r="4.3" fill="#e79aaa" opacity="0.54"/><circle cx="543.6" cy="113.1" r="3.5" fill="#e79aaa" opacity="0.41"/><circle cx="563.2" cy="224.0" r="3.4" fill="#e79aaa" opacity="0.37"/><circle cx="467.0" cy="158.8" r="1.6" fill="#e79aaa" opacity="0.60"/><circle cx="498.0" cy="170.9" r="1.6" fill="#e79aaa" opacity="0.52"/><circle cx="404.3" cy="230.0" r="5.0" fill="#e79aaa" opacity="0.75"/><circle cx="430.7" cy="218.9" r="2.4" fill="#e79aaa" opacity="0.68"/><circle cx="543.3" cy="126.0" r="2.4" fill="#e79aaa" opacity="0.41"/><circle cx="365.3" cy="235.6" r="4.6" fill="#e79aaa" opacity="0.84"/><circle cx="542.2" cy="202.7" r="2.2" fill="#e79aaa" opacity="0.42"/><circle cx="513.7" cy="97.6" r="3.3" fill="#e79aaa" opacity="0.48"/><circle cx="348.3" cy="257.4" r="6.1" fill="#e79aaa" opacity="0.88"/><circle cx="541.5" cy="187.9" r="3.6" fill="#e79aaa" opacity="0.42"/><circle cx="424.4" cy="173.4" r="2.9" fill="#e79aaa" opacity="0.70"/><circle cx="464.2" cy="158.0" r="2.3" fill="#e79aaa" opacity="0.60"/><circle cx="503.3" cy="230.5" r="2.2" fill="#e79aaa" opacity="0.51"/><circle cx="500.6" cy="154.7" r="3.9" fill="#e79aaa" opacity="0.52"/><circle cx="561.4" cy="173.2" r="2.0" fill="#e79aaa" opacity="0.37"/><circle cx="456.4" cy="204.5" r="3.3" fill="#e79aaa" opacity="0.62"/><circle cx="516.7" cy="155.9" r="3.5" fill="#e79aaa" opacity="0.48"/><circle cx="509.9" cy="102.9" r="2.4" fill="#e79aaa" opacity="0.49"/><circle cx="508.1" cy="150.2" r="3.7" fill="#e79aaa" opacity="0.50"/><circle cx="549.1" cy="112.0" r="2.0" fill="#e79aaa" opacity="0.40"/><circle cx="493.7" cy="161.3" r="1.6" fill="#e79aaa" opacity="0.53"/><circle cx="496.9" cy="218.1" r="3.9" fill="#e79aaa" opacity="0.52"/><circle cx="512.0" cy="154.4" r="1.8" fill="#e79aaa" opacity="0.49"/><circle cx="569.1" cy="196.2" r="1.8" fill="#e79aaa" opacity="0.35"/><circle cx="537.2" cy="216.4" r="1.5" fill="#e79aaa" opacity="0.43"/><circle cx="419.7" cy="174.0" r="5.4" fill="#e79aaa" opacity="0.71"/><circle cx="365.2" cy="222.4" r="5.9" fill="#e79aaa" opacity="0.84"/><circle cx="471.4" cy="139.8" r="2.4" fill="#e79aaa" opacity="0.59"/><circle cx="347.6" cy="240.5" r="1.7" fill="#e79aaa" opacity="0.88"/><circle cx="539.1" cy="142.2" r="1.8" fill="#e79aaa" opacity="0.42"/><circle cx="365.6" cy="233.5" r="3.5" fill="#e79aaa" opacity="0.84"/><circle cx="449.5" cy="209.6" r="4.2" fill="#e79aaa" opacity="0.64"/><circle cx="382.7" cy="236.0" r="5.0" fill="#e79aaa" opacity="0.80"/><circle cx="539.4" cy="178.0" r="3.2" fill="#e79aaa" opacity="0.42"/><circle cx="506.1" cy="216.0" r="2.2" fill="#e79aaa" opacity="0.50"/><circle cx="343.0" cy="254.9" r="2.4" fill="#e79aaa" opacity="0.89"/><circle cx="512.4" cy="183.1" r="4.0" fill="#e79aaa" opacity="0.49"/><circle cx="384.7" cy="238.8" r="4.6" fill="#e79aaa" opacity="0.79"/><circle cx="341.0" cy="250.3" r="5.8" fill="#e79aaa" opacity="0.90"/><circle cx="391.5" cy="215.6" r="3.1" fill="#e79aaa" opacity="0.78"/><circle cx="438.5" cy="233.9" r="5.0" fill="#e79aaa" opacity="0.66"/><circle cx="394.0" cy="234.0" r="2.5" fill="#e79aaa" opacity="0.77"/><circle cx="385.4" cy="205.0" r="1.8" fill="#e79aaa" opacity="0.79"/><circle cx="414.9" cy="203.9" r="1.9" fill="#e79aaa" opacity="0.72"/><circle cx="505.9" cy="111.0" r="4.1" fill="#e79aaa" opacity="0.50"/><circle cx="394.9" cy="197.1" r="4.4" fill="#e79aaa" opacity="0.77"/><circle cx="372.2" cy="249.7" r="2.7" fill="#e79aaa" opacity="0.82"/><circle cx="509.7" cy="136.0" r="2.9" fill="#e79aaa" opacity="0.49"/><circle cx="414.0" cy="223.3" r="3.9" fill="#e79aaa" opacity="0.72"/><circle cx="506.8" cy="145.3" r="2.9" fill="#e79aaa" opacity="0.50"/><circle cx="360.9" cy="244.5" r="5.3" fill="#e79aaa" opacity="0.85"/><circle cx="406.7" cy="236.5" r="4.1" fill="#e79aaa" opacity="0.74"/><path d="M 470 136 L 473.5 146.5 L 484 150 L 473.5 153.5 L 470 164 L 466.5 153.5 L 456 150 L 466.5 146.5 Z" fill="#b8935a"/><path d="M 530 221 L 532.25 227.75 L 539 230 L 532.25 232.25 L 530 239 L 527.75 232.25 L 521 230 L 527.75 227.75 Z" fill="#b8935a"/><path d="M 400 112 L 402 118 L 408 120 L 402 122 L 400 128 L 398 122 L 392 120 L 398 118 Z" fill="#b8935a"/><path d="M 560 134 L 561.5 138.5 L 566 140 L 561.5 141.5 L 560 146 L 558.5 141.5 L 554 140 L 558.5 138.5 Z" fill="#b8935a"/>
  <g opacity="0.95"><g transform="translate(70 520) rotate(-20)"><path d="M0 0 C 17 -15.3, 40.8 -11.899999999999999, 54.400000000000006 0 C 40.8 11.899999999999999, 17 15.3, 0 0 Z" fill="#5f7f4f"/><path d="M0 0 L 51 0" stroke="#fff" stroke-opacity="0.35" stroke-width="1.5"/></g><g transform="translate(500 480) rotate(160)"><path d="M0 0 C 15 -13.5, 36 -10.5, 48 0 C 36 10.5, 15 13.5, 0 0 Z" fill="#5f7f4f"/><path d="M0 0 L 45 0" stroke="#fff" stroke-opacity="0.35" stroke-width="1.5"/></g><g transform="translate(120 540)"><ellipse cx="0" cy="-20.7" rx="25.3" ry="27.599999999999998" transform="rotate(0)" fill="#e77a95" opacity="0.85"/><ellipse cx="0" cy="-20.7" rx="25.3" ry="27.599999999999998" transform="rotate(72)" fill="#e77a95" opacity="0.85"/><ellipse cx="0" cy="-20.7" rx="25.3" ry="27.599999999999998" transform="rotate(144)" fill="#e77a95" opacity="0.85"/><ellipse cx="0" cy="-20.7" rx="25.3" ry="27.599999999999998" transform="rotate(216)" fill="#e77a95" opacity="0.85"/><ellipse cx="0" cy="-20.7" rx="25.3" ry="27.599999999999998" transform="rotate(288)" fill="#e77a95" opacity="0.85"/><ellipse cx="0" cy="-16.146" rx="19.734" ry="21.528000000000002" transform="rotate(23)" fill="#c9476b" opacity="0.89"/><ellipse cx="0" cy="-16.146" rx="19.734" ry="21.528000000000002" transform="rotate(83)" fill="#c9476b" opacity="0.89"/><ellipse cx="0" cy="-16.146" rx="19.734" ry="21.528000000000002" transform="rotate(143)" fill="#c9476b" opacity="0.89"/><ellipse cx="0" cy="-16.146" rx="19.734" ry="21.528000000000002" transform="rotate(203)" fill="#c9476b" opacity="0.89"/><ellipse cx="0" cy="-16.146" rx="19.734" ry="21.528000000000002" transform="rotate(263)" fill="#c9476b" opacity="0.89"/><ellipse cx="0" cy="-16.146" rx="19.734" ry="21.528000000000002" transform="rotate(323)" fill="#c9476b" opacity="0.89"/><ellipse cx="0" cy="-11.592" rx="14.168000000000003" ry="15.456" transform="rotate(46)" fill="#e77a95" opacity="0.9299999999999999"/><ellipse cx="0" cy="-11.592" rx="14.168000000000003" ry="15.456" transform="rotate(97.42857142857142)" fill="#e77a95" opacity="0.9299999999999999"/><ellipse cx="0" cy="-11.592" rx="14.168000000000003" ry="15.456" transform="rotate(148.85714285714283)" fill="#e77a95" opacity="0.9299999999999999"/><ellipse cx="0" cy="-11.592" rx="14.168000000000003" ry="15.456" transform="rotate(200.28571428571428)" fill="#e77a95" opacity="0.9299999999999999"/><ellipse cx="0" cy="-11.592" rx="14.168000000000003" ry="15.456" transform="rotate(251.7142857142857)" fill="#e77a95" opacity="0.9299999999999999"/><ellipse cx="0" cy="-11.592" rx="14.168000000000003" ry="15.456" transform="rotate(303.14285714285717)" fill="#e77a95" opacity="0.9299999999999999"/><ellipse cx="0" cy="-11.592" rx="14.168000000000003" ry="15.456" transform="rotate(354.57142857142856)" fill="#e77a95" opacity="0.9299999999999999"/><ellipse cx="0" cy="-7.037999999999999" rx="8.602" ry="9.383999999999999" transform="rotate(69)" fill="#c9476b" opacity="0.97"/><ellipse cx="0" cy="-7.037999999999999" rx="8.602" ry="9.383999999999999" transform="rotate(114)" fill="#c9476b" opacity="0.97"/><ellipse cx="0" cy="-7.037999999999999" rx="8.602" ry="9.383999999999999" transform="rotate(159)" fill="#c9476b" opacity="0.97"/><ellipse cx="0" cy="-7.037999999999999" rx="8.602" ry="9.383999999999999" transform="rotate(204)" fill="#c9476b" opacity="0.97"/><ellipse cx="0" cy="-7.037999999999999" rx="8.602" ry="9.383999999999999" transform="rotate(249)" fill="#c9476b" opacity="0.97"/><ellipse cx="0" cy="-7.037999999999999" rx="8.602" ry="9.383999999999999" transform="rotate(294)" fill="#c9476b" opacity="0.97"/><ellipse cx="0" cy="-7.037999999999999" rx="8.602" ry="9.383999999999999" transform="rotate(339)" fill="#c9476b" opacity="0.97"/><ellipse cx="0" cy="-7.037999999999999" rx="8.602" ry="9.383999999999999" transform="rotate(384)" fill="#c9476b" opacity="0.97"/><circle r="8.28" fill="#c9476b"/></g><g transform="translate(480 545)"><ellipse cx="0" cy="-18" rx="22" ry="24" transform="rotate(0)" fill="#f29bb0" opacity="0.85"/><ellipse cx="0" cy="-18" rx="22" ry="24" transform="rotate(72)" fill="#f29bb0" opacity="0.85"/><ellipse cx="0" cy="-18" rx="22" ry="24" transform="rotate(144)" fill="#f29bb0" opacity="0.85"/><ellipse cx="0" cy="-18" rx="22" ry="24" transform="rotate(216)" fill="#f29bb0" opacity="0.85"/><ellipse cx="0" cy="-18" rx="22" ry="24" transform="rotate(288)" fill="#f29bb0" opacity="0.85"/><ellipse cx="0" cy="-14.040000000000001" rx="17.160000000000004" ry="18.720000000000002" transform="rotate(23)" fill="#d65d7f" opacity="0.89"/><ellipse cx="0" cy="-14.040000000000001" rx="17.160000000000004" ry="18.720000000000002" transform="rotate(83)" fill="#d65d7f" opacity="0.89"/><ellipse cx="0" cy="-14.040000000000001" rx="17.160000000000004" ry="18.720000000000002" transform="rotate(143)" fill="#d65d7f" opacity="0.89"/><ellipse cx="0" cy="-14.040000000000001" rx="17.160000000000004" ry="18.720000000000002" transform="rotate(203)" fill="#d65d7f" opacity="0.89"/><ellipse cx="0" cy="-14.040000000000001" rx="17.160000000000004" ry="18.720000000000002" transform="rotate(263)" fill="#d65d7f" opacity="0.89"/><ellipse cx="0" cy="-14.040000000000001" rx="17.160000000000004" ry="18.720000000000002" transform="rotate(323)" fill="#d65d7f" opacity="0.89"/><ellipse cx="0" cy="-10.080000000000002" rx="12.320000000000002" ry="13.440000000000001" transform="rotate(46)" fill="#f29bb0" opacity="0.9299999999999999"/><ellipse cx="0" cy="-10.080000000000002" rx="12.320000000000002" ry="13.440000000000001" transform="rotate(97.42857142857142)" fill="#f29bb0" opacity="0.9299999999999999"/><ellipse cx="0" cy="-10.080000000000002" rx="12.320000000000002" ry="13.440000000000001" transform="rotate(148.85714285714283)" fill="#f29bb0" opacity="0.9299999999999999"/><ellipse cx="0" cy="-10.080000000000002" rx="12.320000000000002" ry="13.440000000000001" transform="rotate(200.28571428571428)" fill="#f29bb0" opacity="0.9299999999999999"/><ellipse cx="0" cy="-10.080000000000002" rx="12.320000000000002" ry="13.440000000000001" transform="rotate(251.7142857142857)" fill="#f29bb0" opacity="0.9299999999999999"/><ellipse cx="0" cy="-10.080000000000002" rx="12.320000000000002" ry="13.440000000000001" transform="rotate(303.14285714285717)" fill="#f29bb0" opacity="0.9299999999999999"/><ellipse cx="0" cy="-10.080000000000002" rx="12.320000000000002" ry="13.440000000000001" transform="rotate(354.57142857142856)" fill="#f29bb0" opacity="0.9299999999999999"/><ellipse cx="0" cy="-6.119999999999999" rx="7.4799999999999995" ry="8.159999999999998" transform="rotate(69)" fill="#d65d7f" opacity="0.97"/><ellipse cx="0" cy="-6.119999999999999" rx="7.4799999999999995" ry="8.159999999999998" transform="rotate(114)" fill="#d65d7f" opacity="0.97"/><ellipse cx="0" cy="-6.119999999999999" rx="7.4799999999999995" ry="8.159999999999998" transform="rotate(159)" fill="#d65d7f" opacity="0.97"/><ellipse cx="0" cy="-6.119999999999999" rx="7.4799999999999995" ry="8.159999999999998" transform="rotate(204)" fill="#d65d7f" opacity="0.97"/><ellipse cx="0" cy="-6.119999999999999" rx="7.4799999999999995" ry="8.159999999999998" transform="rotate(249)" fill="#d65d7f" opacity="0.97"/><ellipse cx="0" cy="-6.119999999999999" rx="7.4799999999999995" ry="8.159999999999998" transform="rotate(294)" fill="#d65d7f" opacity="0.97"/><ellipse cx="0" cy="-6.119999999999999" rx="7.4799999999999995" ry="8.159999999999998" transform="rotate(339)" fill="#d65d7f" opacity="0.97"/><ellipse cx="0" cy="-6.119999999999999" rx="7.4799999999999995" ry="8.159999999999998" transform="rotate(384)" fill="#d65d7f" opacity="0.97"/><circle r="7.199999999999999" fill="#d65d7f"/></g><circle cx="170" cy="590" r="9" fill="#c0284f"/><circle cx="166.85" cy="586.85" r="2.25" fill="#fff" opacity="0.4"/><circle cx="430" cy="595" r="8" fill="#c0284f"/><circle cx="427.2" cy="592.2" r="2" fill="#fff" opacity="0.4"/></g>
  
  <rect x="140" y="560" width="320" height="70" fill="#f7cbd5" opacity="0.9"/>
  <rect x="140" y="560" width="320" height="70" fill="url(#fade)"/>
  <ellipse cx="300" cy="630" rx="160" ry="18" fill="#f7cbd5"/>
  <ellipse cx="300" cy="560" rx="160" ry="18" fill="#fff" opacity="0.92"/>
  <ellipse cx="300" cy="560" rx="160" ry="18" fill="#f7cbd5" opacity="0.25"/>
  
  <ellipse cx="300" cy="566" rx="120" ry="12" fill="#000" opacity="0.22" filter="url(#soft)"/>
  <rect x="266" y="208" width="68" height="74" rx="10" fill="url(#cap)"/>
  <rect x="266" y="208" width="68" height="10" rx="5" fill="#fff" opacity="0.35"/>
  <rect x="260" y="280" width="80" height="22" rx="4" fill="url(#collar)"/>
  <rect x="200" y="300" width="200" height="260" rx="32" fill="url(#liquid)" opacity="0.18"/>
  <clipPath id="body"><rect x="200" y="300" width="200" height="260" rx="32"/></clipPath>
  <g clip-path="url(#body)">
    <rect x="200" y="357.2" width="200" height="260" fill="url(#liquid)"/>
    <ellipse cx="300" cy="357.2" rx="100" ry="7" fill="#fff" opacity="0.35"/>
    <rect x="200" y="300" width="200" height="260" fill="url(#glass)"/>
    <rect x="216" y="312" width="28.000000000000004" height="236" rx="14.000000000000002" fill="url(#shine)"/>
    <rect x="364" y="324" width="10" height="143" rx="4" fill="#fff" opacity="0.45"/>
  </g>
  <rect x="200" y="300" width="200" height="260" rx="32" fill="none" stroke="#fff" stroke-opacity="0.7" stroke-width="2.5"/>
  <rect x="234" y="409.2" width="132" height="88.4" rx="4" fill="#fffdf8" opacity="0.96"/>
  <rect x="239" y="414.2" width="122" height="78.4" rx="2" fill="none" stroke="#b8975a" stroke-width="1.2"/>
  <text x="300" y="456" font-family="Georgia, serif" font-size="40" text-anchor="middle" fill="#111">7</text>
  <text x="300" y="474.20000000000005" font-family="Arial, sans-serif" font-size="11" letter-spacing="5" text-anchor="middle" fill="#111">SEVEN</text>
  <text x="300" y="487.2" font-family="Arial, sans-serif" font-size="7.000000000000001" letter-spacing="2" text-anchor="middle" fill="#8a7a5a">EAU DE PARFUM</text>
</svg>
